<svg width="1207" height="1056" xmlns="http://www.w3.org/2000/svg" preserveAspectRatio="xMidYMid meet">

 <g>
  <title>background</title>
  <rect fill="none" id="canvas_background" height="602" width="802" y="-1" x="-1"/>
 </g>
 <g>
  <title>Layer 1</title>
  <g id="svg_1" fill="#000000" transform="translate(0, 1056) scale(0.1, -0.1)">
   <path fill="#1a2b81" id="svg_2" d="m5676,10368c-88,-4 -160,-9 -161,-11c-1,-1 -103,-313 -225,-694l-223,-691l-126,-32c-251,-63 -515,-158 -730,-264c-62,-31 -118,-53 -125,-49c-6,4 -282,177 -613,385c-332,208 -605,378 -608,378c-22,0 -379,-291 -512,-417l-72,-68l269,-660c148,-363 271,-665 272,-672c2,-6 -31,-58 -73,-115c-153,-208 -286,-436 -399,-680c-30,-65 -57,-118 -60,-118c-51,-4 -1411,-198 -1415,-202c-19,-18 -116,-522 -130,-673l-7,-70l640,-338l639,-338l6,-117c15,-263 90,-677 160,-877l14,-40l-484,-534l-483,-534l90,-175c74,-143 250,-442 280,-475c4,-5 326,60 715,144l707,152l112,-110c201,-198 364,-334 569,-473c60,-40 111,-80 115,-88c5,-14 -31,-1104 -45,-1342l-6,-106l39,-16c280,-114 627,-238 669,-238c7,0 214,259 460,576l448,576l36,-6c197,-30 664,-32 885,-3l98,13l450,-578c247,-318 456,-578 463,-578c43,0 387,123 668,238l38,16l-6,110c-4,88 -28,715 -47,1290l-3,80l121,85c208,147 376,291 549,469l90,93l724,-156c398,-85 727,-155 730,-155c18,1 209,321 316,531l64,126l-499,551l-498,551l14,48c63,206 117,493 139,749c10,114 20,181 28,186c6,4 304,162 660,350l649,343l-7,70c-14,148 -112,655 -130,674c-3,2 -334,50 -735,106c-401,55 -731,103 -733,105c-3,3 -26,52 -53,110c-93,204 -250,473 -395,677l-52,71l281,689l281,688l-62,58c-148,140 -499,427 -522,427c-3,0 -272,-167 -598,-372c-326,-204 -606,-380 -624,-390l-31,-19l-99,49c-205,103 -472,203 -715,267c-72,19 -132,36 -133,37c-1,2 -102,314 -224,693c-122,380 -225,693 -229,697c-8,8 -313,29 -387,27c-27,-1 -122,-6 -209,-11zm598,-2468c565,-84 1085,-346 1486,-749c243,-244 423,-508 555,-815c155,-358 222,-711 212,-1111c-8,-286 -42,-496 -122,-745c-184,-569 -555,-1056 -1065,-1395c-131,-87 -388,-217 -534,-270c-512,-188 -1081,-212 -1601,-70c-346,95 -680,265 -965,492c-111,89 -299,275 -389,386c-385,475 -591,1057 -591,1667c0,708 273,1365 774,1865c211,210 419,360 685,493c302,151 622,241 965,272c140,13 433,3 590,-20z"/>
   <path fill="#1a2b81" id="svg_3" d="m3970,5765l0,-845l775,0l775,0l0,140l0,140l-570,0l-570,0l0,230l0,230l510,0l510,0l0,145l0,145l-510,0l-510,0l0,185l0,185l550,0l550,0l0,145l0,145l-755,0l-755,0l0,-845z"/>
   <path fill="#1a2b81" id="svg_4" d="m5860,5765l0,-845l190,0l190,0l1,658l1,657l27,-85c15,-47 105,-343 201,-657l175,-573l197,0l197,0l29,93c16,50 105,341 198,645l169,553l6,-548c3,-302 7,-592 8,-645l1,-98l190,0l190,0l0,845l0,845l-310,0l-309,0l-19,-62c-10,-35 -92,-294 -183,-576l-163,-513l-62,193c-35,106 -118,365 -186,575l-123,383l-307,0l-308,0l0,-845z"/>
   <path fill="#1a2b81" id="svg_5" d="m4097,4640c-141,-36 -204,-163 -136,-276c26,-43 96,-78 218,-109c160,-40 201,-69 201,-141c0,-37 -57,-90 -111,-104c-57,-16 -141,-6 -191,22c-38,22 -78,72 -78,99c0,31 -16,41 -54,34c-31,-6 -36,-11 -36,-34c1,-74 82,-167 168,-192c26,-8 86,-14 133,-14c71,0 93,5 135,26c91,47 138,140 115,227c-24,86 -80,123 -255,166c-121,30 -160,47 -176,75c-32,60 20,134 103,146c107,16 184,-16 212,-89c18,-48 31,-53 80,-38c19,6 20,12 13,47c-11,53 -57,108 -113,135c-51,25 -168,35 -228,20z"/>
   <path fill="#1a2b81" id="svg_6" d="m5417,4640c-141,-36 -204,-163 -136,-276c26,-43 96,-78 218,-109c160,-40 201,-69 201,-141c0,-37 -57,-90 -111,-104c-57,-16 -141,-6 -191,22c-38,22 -78,72 -78,99c0,31 -16,41 -54,34c-31,-6 -36,-11 -36,-34c1,-74 82,-167 168,-192c26,-8 86,-14 133,-14c71,0 93,5 135,26c91,47 138,140 115,227c-24,86 -80,123 -255,166c-121,30 -160,47 -176,75c-32,60 20,134 103,146c107,16 184,-16 212,-89c18,-48 31,-53 80,-38c19,6 20,12 13,47c-11,53 -57,108 -113,135c-51,25 -168,35 -228,20z"/>
   <path fill="#1a2b81" id="svg_7" d="m4530,4635c0,-3 61,-96 135,-208l135,-202l0,-147l0,-148l45,0l45,0l0,151l0,151l132,192c72,105 136,197 141,204c7,9 -3,12 -46,12l-55,0l-104,-160c-56,-87 -105,-159 -108,-160c-3,0 -52,72 -109,160l-103,160l-54,0c-30,0 -54,-2 -54,-5z"/>
   <path fill="#1a2b81" id="svg_8" d="m5860,4600l0,-40l120,0l120,0l0,-315l0,-315l45,0l45,0l0,315l0,315l115,0l115,0l0,40l0,40l-280,0l-280,0l0,-40z"/>
   <path fill="#1a2b81" id="svg_9" d="m6520,4285l0,-355l265,0l265,0l0,40l0,40l-215,0l-215,0l0,125l0,125l195,0l195,0l0,40l0,40l-195,0l-195,0l0,110l0,110l205,0l205,0l0,40l0,40l-255,0l-255,0l0,-355z"/>
   <path fill="#1a2b81" id="svg_10" d="m7180,4285l0,-355l45,0l45,0l1,298l0,297l102,-297l102,-298l42,0l41,0l20,58c87,258 176,509 183,517c5,5 9,-118 9,-283l0,-292l40,0l40,0l0,355l0,356l-61,-3l-62,-3l-102,-299c-56,-164 -104,-295 -107,-290c-3,5 -49,141 -102,302l-98,292l-69,0l-69,0l0,-355z"/>
  </g>
 </g>
</svg>