<svg width="1920" height="951" xmlns="http://www.w3.org/2000/svg" style="vector-effect: non-scaling-stroke;" preserveAspectRatio="xMidYMid meet">

 <g>
  <title>background</title>
  <rect fill="none" id="canvas_background" height="953" width="1922" y="-1" x="-1"/>
 </g>
 <g>
  <title>Layer 1</title>
  <path transform="rotate(-180, 1172.8, 587.434)" id="svg_7" d="m1136.49465,547.10159l-0.11673,88.71788l72.84205,1.86774l-1.98448,-100.50802" stroke-opacity="null" stroke-width="null" stroke="null" fill="#ffffff"/>
  <path id="svg_5" d="m1082.74074,199.17375c0,-30.76005 24.9157,-55.67571 55.67573,-55.67571c30.76008,0 55.67569,24.91567 55.67569,55.67571c0,30.76005 -24.91561,55.67571 -55.67569,55.67571c-30.76008,0 -55.67573,-24.91567 -55.67573,-55.67571zm187.19132,157.59782l0,-28.11783c0,-29.58409 -23.96928,-53.5705 -53.57052,-53.5705l-156.06261,0c-29.5841,0 -53.5705,23.98641 -53.5705,53.5705l0,28.11783c-0.05173,0.63822 -0.08627,1.29377 -0.08627,1.95789l0,161.95357c0,12.58402 10.19494,22.77887 22.77894,22.77887c12.56679,0 22.7875,-10.19489 22.7875,-22.77887l0,-159.55575l15.27504,0l0,182.35185l0.11212,0l141.51202,0l0.09488,0l0,-182.35185l15.27507,0l0,159.54708c0,12.58405 10.22069,22.78752 22.78753,22.78752c12.58417,0 22.77894,-10.20347 22.77894,-22.78752l0,-161.95352c-0.00856,-0.67274 -0.06038,-1.31103 -0.11214,-1.94928l0,0.00002z" stroke-opacity="null" stroke-width="null" stroke="null" fill="#ffffff"/>
  <path id="svg_3" d="m662.3698,199.17375c0,-30.76005 24.9157,-55.67571 55.67573,-55.67571c30.76008,0 55.67569,24.91567 55.67569,55.67571c0,30.76005 -24.91561,55.67571 -55.67569,55.67571c-30.76008,0 -55.67573,-24.91567 -55.67573,-55.67571zm187.19132,157.59782l0,-28.11783c0,-29.58409 -23.96928,-53.5705 -53.57052,-53.5705l-156.06261,0c-29.5841,0 -53.5705,23.98641 -53.5705,53.5705l0,28.11783c-0.05173,0.63822 -0.08627,1.29377 -0.08627,1.95789l0,161.95357c0,12.58402 10.19494,22.77887 22.77894,22.77887c12.56679,0 22.7875,-10.19489 22.7875,-22.77887l0,-159.55575l15.27504,0l0,182.35185l0.11212,0l141.51202,0l0.09488,0l0,-182.35185l15.27507,0l0,159.54708c0,12.58405 10.22069,22.78752 22.78753,22.78752c12.58417,0 22.77894,-10.20347 22.77894,-22.78752l0,-161.95352c-0.00856,-0.67274 -0.06038,-1.31103 -0.11214,-1.94928l0,0.00002z" stroke-opacity="null" stroke-width="null" stroke="null" fill="#ffffff"/>
  <path id="svg_6" d="m647.17357,542.11293l-0.11673,88.71788l72.84205,1.86774l-1.98448,-100.50802" stroke-opacity="null" stroke-width="null" stroke="null" fill="#ffffff"/>
  <g id="svg_1" fill="#000000" transform="translate(0, 948) scale(0.1, -0.1)">
   <path fill="#1a2b81" id="svg_2" d="m9182.34669,6378.50639c-85.4298,-5.71 -222.30119,-18.16817 -224.13839,-20.24453c-1.3779,-1.03818 -77.1624,-265.25526 -169.02239,-586.05321c-91.4007,-321.31704 -167.64449,-586.5723 -169.02239,-589.16775c-1.3779,-2.59545 -17.4534,-8.82454 -35.8254,-13.49635c-197.03969,-52.94723 -396.83519,-132.88718 -577.34008,-230.99529l-67.9764,-37.37452l-396.83519,281.86616c-218.16749,154.68898 -427.14899,303.14887 -464.35228,329.62249l-67.0578,47.75633l-75.3252,-62.80995c-134.5749,-113.68083 -268.69049,-240.85801 -377.08529,-357.65338l-50.0637,-53.46632l203.01059,-563.21322c111.6099,-309.89705 203.92919,-567.36595 205.30709,-572.55685c1.3779,-5.71 -6.8895,-22.83998 -22.965,-46.71815c-63.3834,-95.51266 -141.9237,-232.55256 -203.46989,-354.53883c-32.6103,-65.40541 -108.8541,-236.70528 -127.6854,-288.61433c-11.4825,-30.10725 -14.6976,-34.77907 -27.558,-37.37452c-7.8081,-1.55727 -247.56269,-38.93179 -533.24728,-83.57358c-285.22529,-44.64179 -521.30548,-81.49721 -523.60198,-82.53539c-5.5116,-2.07636 -34.9068,-134.96354 -59.2497,-267.85071c-27.0987,-146.38353 -51.9009,-325.98885 -60.6276,-442.78422l-3.2151,-39.96997l1269.96446,0l1270.42376,0l2.7558,82.0163c7.8081,199.84985 36.744,368.03519 90.4821,524.28144c180.04559,522.72416 581.47378,893.3548 1067.41316,984.19564c114.3657,21.8018 315.53909,24.39725 420.25949,5.71c395.45729,-70.07722 725.69397,-302.62978 947.07657,-667.03133c151.56899,-249.16345 227.81279,-519.09053 240.67319,-847.15574l3.2151,-82.0163l1273.63886,0c1232.30186,0 1274.09816,0.51909 1274.09816,9.34363c0,20.24453 -23.8836,225.28529 -34.9068,299.51524c-18.372,125.10082 -78.081,433.95968 -84.9705,440.70786c-0.9186,1.03818 -244.80689,39.45088 -541.51468,85.64994c-296.70779,46.19906 -546.10768,85.13085 -553.91578,86.68812c-11.9418,2.59545 -15.6162,7.26727 -27.0987,37.37452c-17.9127,47.23724 -90.0228,210.75076 -115.7436,262.65981c-56.9532,114.71901 -117.5808,222.17075 -186.47579,331.69885l-31.6917,50.35178l207.60359,577.74776c114.3657,317.16431 209.44079,582.41957 211.73729,588.64866c3.2151,9.34363 -5.5116,20.76362 -70.7322,88.76448c-129.5226,134.96354 -214.03379,214.38439 -349.98659,329.1034c-75.3252,63.32904 -78.5403,65.40541 -88.6449,58.13814c-11.9418,-8.82454 -918.59997,-651.97771 -926.86737,-657.6877c-3.2151,-2.07636 -41.337,16.09181 -84.9705,39.96997c-151.10969,82.0163 -321.96929,153.13171 -497.42188,207.63621l-87.267,26.99271l-169.48169,593.83957c-93.2379,327.02703 -169.94099,594.87775 -170.40029,595.39684c-0.4593,0.51909 -44.0928,4.67181 -96.9123,9.34363c-96.9123,8.30545 -277.41719,13.49635 -332.99249,9.86272z"/>
  </g>
  <text font-weight="bold" style="cursor: move;" transform="matrix(9.46024, 0, 0, 9.46024, -9644.74, -7676.19)" xml:space="preserve" text-anchor="start" font-family="Helvetica, Arial, sans-serif" font-size="24" id="svg_8" y="905.59478" x="1091.95251" stroke-width="null" fill="#1a2b81">EMS</text>
 </g>
</svg>