<svg width="1887" height="948" xmlns="http://www.w3.org/2000/svg" style="vector-effect: non-scaling-stroke;" preserveAspectRatio="xMidYMid meet">

 <g>
  <title>background</title>
  <rect fill="none" id="canvas_background" height="602" width="802" y="-1" x="-1"/>
 </g>
 <g>
  <title>Layer 1</title>
  <path id="svg_7" d="m632.59801,90.72647c0,-31.04482 25.14636,-56.19116 56.19116,-56.19116c31.04484,0 56.19111,25.14634 56.19111,56.19116c0,31.04482 -25.14627,56.19116 -56.19111,56.19116c-31.04484,0 -56.19116,-25.14634 -56.19116,-56.19116zm188.92426,159.05686l0,-28.37815c0,-29.85798 -24.19118,-54.06646 -54.06645,-54.06646l-157.50737,0c-29.85797,0 -54.06643,24.20848 -54.06643,54.06646l0,28.37815c-0.05221,0.64413 -0.08707,1.30575 -0.08707,1.97601l0,163.45293c0,12.70053 10.28932,22.98975 22.98982,22.98975c12.68313,0 22.99846,-10.28927 22.99846,-22.98975l0,-161.03292l15.41645,0l0,184.04007l0.11315,0l142.82208,0l0.09576,0l0,-184.04007l15.41648,0l0,161.02417c0,12.70055 10.31531,22.99849 22.99848,22.99849c12.70067,0 22.98982,-10.29793 22.98982,-22.99849l0,-163.45289c-0.00864,-0.67897 -0.06094,-1.32317 -0.11318,-1.96733l0,0.00002z" stroke-width="1.5" stroke="#000" fill="#fff"/>
  <path id="svg_13" d="m617.12702,437.20071l-0.18411,149.35546l152.11786,-85.26704l-11.60221,-67.58748" fill-opacity="null" stroke-opacity="null" stroke-width="1.5" stroke="#000" fill="#fff"/>
  <path id="svg_11" d="m1059.16513,90.72647c0,-31.04482 25.14636,-56.19116 56.19116,-56.19116c31.04484,0 56.19111,25.14634 56.19111,56.19116c0,31.04482 -25.14627,56.19116 -56.19111,56.19116c-31.04484,0 -56.19116,-25.14634 -56.19116,-56.19116zm188.92426,159.05686l0,-28.37815c0,-29.85798 -24.19118,-54.06646 -54.06645,-54.06646l-157.50737,0c-29.85797,0 -54.06643,24.20848 -54.06643,54.06646l0,28.37815c-0.05221,0.64413 -0.08707,1.30575 -0.08707,1.97601l0,163.45293c0,12.70053 10.28932,22.98975 22.98982,22.98975c12.68313,0 22.99846,-10.28927 22.99846,-22.98975l0,-161.03292l15.41645,0l0,184.04007l0.11315,0l142.82208,0l0.09576,0l0,-184.04007l15.41648,0l0,161.02417c0,12.70055 10.31531,22.99849 22.99848,22.99849c12.70067,0 22.98982,-10.29793 22.98982,-22.99849l0,-163.45289c-0.00864,-0.67897 -0.06094,-1.32317 -0.11318,-1.96733l0,0.00002z" stroke-width="1.5" stroke="#000" fill="#fff"/>
  <path id="svg_12" d="m1186.84653,437.36909l-0.00001,154.90594l-135.07295,-67.43209l-5.84551,-89.56151" fill-opacity="null" stroke-opacity="null" stroke-width="1.5" stroke="#000" fill="#fff"/>
  <g id="svg_1" fill="white" transform="translate(0, 948) scale(0.1, -0.1)">
   <path fill="#1a2b81" id="svg_2" d="m8923.15065,6921.05929c-87.12535,-5.86479 -226.71327,-18.6607 -228.58693,-20.79335c-1.40525,-1.06633 -78.69386,-272.4462 -172.37703,-601.94082c-93.21475,-330.02778 -170.97178,-602.47398 -172.37703,-605.1398c-1.40525,-2.66581 -17.7998,-9.06377 -36.53644,-13.86223c-200.9504,-54.38261 -404.71129,-136.48968 -588.79871,-237.25745l-69.32554,-38.38772l-404.71129,289.50741c-222.49753,158.88252 -435.62673,311.36709 -473.56842,338.55839l-68.38871,49.05098l-76.8202,-64.5127c-137.24584,-116.76266 -274.02327,-247.38755 -384.56941,-367.34918l-51.05733,-54.91577l207.0398,-578.48166c113.82505,-318.2982 207.97663,-582.74696 209.38188,-588.07859c1.40525,-5.86479 -7.02624,-23.45916 -23.42079,-47.98465c-64.64139,-98.10196 -144.7405,-238.85694 -207.50822,-364.1502c-33.25752,-67.17851 -111.01455,-243.12224 -130.2196,-296.43853c-11.7104,-30.92344 -14.98931,-35.72191 -28.10495,-38.38772c-7.96307,-1.59949 -252.47614,-39.98721 -543.83079,-85.83921c-290.88624,-45.852 -531.65198,-83.70656 -533.99406,-84.77289c-5.62099,-2.13265 -35.5996,-138.62233 -60.42564,-275.11201c-27.63653,-150.35191 -52.93099,-334.82625 -61.83089,-454.78788l-3.27891,-41.05354l1295.1698,0l1295.63822,0l2.8105,84.23973c7.96307,205.26768 37.47327,378.01244 92.27792,538.49445c183.61901,536.89496 593.01446,917.57321 1088.59842,1010.8767c116.63554,22.39284 321.80168,25.05865 428.6005,5.86479c403.30604,-71.97698 740.09703,-310.83392 965.87347,-685.11422c154.57723,-255.91815 232.33426,-533.16282 245.4499,-870.12172l3.27891,-84.23973l1298.91713,0c1256.7597,0 1299.38555,0.53316 1299.38555,9.59693c0,20.79335 -24.35762,231.39266 -35.5996,307.63495c-18.73663,128.49224 -79.63069,445.72411 -86.65693,452.65523c-0.93683,1.06633 -249.66564,40.52037 -552.26228,87.97186c-302.59663,47.45149 -556.94644,87.4387 -564.90951,89.03819c-12.17881,2.66581 -15.92614,7.46428 -27.63653,38.38772c-18.26822,48.51782 -91.80951,216.4641 -118.04079,269.78039c-58.08356,117.82898 -119.91446,228.19369 -190.17683,340.69104l-32.32069,51.71679l211.72396,593.41022c116.63554,325.76248 213.59762,598.20868 215.9397,604.60663c3.27891,9.59693 -5.62099,21.32651 -72.13604,91.17084c-132.09327,138.62233 -218.28178,220.19624 -356.93287,338.02523c-76.8202,65.04586 -80.09911,67.17851 -90.40426,59.71424c-12.17881,-9.06377 -936.83168,-669.6525 -945.26317,-675.51729c-3.27891,-2.13265 -42.15743,16.52805 -86.65693,41.05354c-154.10881,84.23973 -328.35951,157.28303 -507.29436,213.26513l-88.99901,27.72447l-172.84545,609.93826c-95.08842,335.89257 -173.31386,611.00459 -173.78228,611.53775c-0.46842,0.53316 -44.96792,4.79847 -98.83574,9.59693c-98.83574,8.53061 -282.92317,13.86223 -339.60149,10.13009z"/>
  </g>
  <text font-weight="bold" transform="matrix(9.73623, 0, 0, 9.73623, -8936.19, -7103.56)" xml:space="preserve" text-anchor="start" font-family="Helvetica, Arial, sans-serif" font-size="24" id="svg_14" y="817.0276" x="984.30722" stroke-opacity="null" stroke-width="0" stroke="#000" fill="#1a2b81">EMS</text>
 </g>
</svg>