<svg width="1887" height="993.0000000000001" xmlns="http://www.w3.org/2000/svg" style="vector-effect: non-scaling-stroke;" preserveAspectRatio="xMidYMid meet">

 <g>
  <title>background</title>
  <rect fill="#ffffff" id="canvas_background" height="995" width="1889" y="-1" x="-1"/>
 </g>
 <g>
  <title>Layer 1</title>
  <path id="svg_23" d="m1299.30808,522.4238l122.77016,-64.93261c-2.41343,-24.05825 -7.07774,-47.39623 -12.91279,-70.33862l-136.3801,-18.88529c-11.80416,-28.43567 -27.39199,-54.80897 -45.71515,-79.01842l51.98626,-127.85562c-17.09403,-16.67102 -35.55491,-31.87015 -54.98527,-45.85562l-115.8044,72.70052c-27.15626,-14.28089 -56.41452,-25.1274 -87.1287,-32.09357l-41.84991,-129.65125c-11.86903,-0.89627 -23.73465,-1.84319 -35.83878,-1.84319s-23.93619,0.92505 -35.84091,1.84319l-41.43531,128.50283c-31.53751,6.74293 -61.44179,17.71544 -89.29608,32.17258l-114.00094,-71.63111c-19.40577,13.98547 -37.86588,29.18464 -54.95855,45.85562l50.55562,124.32401c-19.70412,25.2535 -36.20093,53.11713 -48.59151,83.14747l-132.07471,18.26602c-5.81042,22.91015 -10.49914,46.2234 -12.88772,70.33575l118.5403,62.71779c1.34299,33.0149 6.81666,65.01174 16.50931,95.14282l-89.42041,98.87179c10.40196,21.57488 21.98286,42.49792 35.38008,62.12773l131.6514,-28.2629c21.58524,23.4858 46.17797,44.06319 73.31108,61.07997l-4.99008,134.699c21.62155,9.7516 44.08667,17.9129 67.23769,24.43639l83.2883,-107.05882c14.77792,1.88663 29.74254,3.15733 45.00591,3.15733c16.53503,0 32.70541,-1.49379 48.6154,-3.67969l83.72201,107.65274c23.18737,-6.51595 45.61828,-14.67681 67.23762,-24.42897l-5.08637,-137.11802c25.86141,-16.74272 49.31185,-36.77302 69.98605,-59.38787l135.07522,28.98332c13.39729,-19.6268 24.97977,-40.52757 35.37798,-62.12049l-92.31666,-102.10899c8.86808,-28.54009 13.82181,-58.66815 15.264,-89.74582l-0.00004,0zm-204.05312,155.9738l-58.20746,37.89296l-35.80148,-55.0064c-18.62446,7.16378 -38.67582,11.51978 -59.8132,11.51978c-92.31625,0 -167.12997,-74.84313 -167.12997,-167.14506c0,-92.30567 74.81372,-167.11984 167.12997,-167.11984c92.29214,0 167.13321,74.81417 167.13321,167.11984c0,46.12601 -18.68561,87.82343 -48.88957,118.07719l35.5785,54.66152z" stroke-width="1.5" stroke="#ffffff" fill="#1a2b81"/>
  <ellipse ry="244.90817" rx="244.90817" id="svg_24" cy="496.49998" cx="943.49997" stroke-opacity="null" stroke-width="1.5" stroke="#1a2b81" fill="#ffffff"/>
  <text cy="155.9903" cx="852.72334" ry="1.45631" rx="403.88351" font-weight="bold" transform="matrix(10.9774, 0, 0, 9.09047, -9738.14, -6346.76)" xml:space="preserve" text-anchor="start" font-family="Helvetica, Arial, sans-serif" font-size="24" id="svg_14" y="756.52217" x="955.05736" stroke-opacity="null" stroke-width="0" stroke="#000" fill="#1a2b81">EM</text>
  <text font-style="normal" font-weight="normal" transform="matrix(3.81935, 0, 0, 3.81935, -3540.73, -1914.46)" xml:space="preserve" text-anchor="start" font-family="Helvetica, Arial, sans-serif" font-size="24" id="svg_15" y="664.16694" x="1124.73917" stroke-opacity="null" stroke-width="0" stroke="#000" fill="#1a2b81">SYSTEM</text>
  <path id="svg_19" d="m637.89027,444.02967l0.16702,-0.08834c-0.00328,-0.03273 -0.00963,-0.06448 -0.01757,-0.09569l-0.18554,-0.02569c-0.01606,-0.03869 -0.03727,-0.07457 -0.06219,-0.1075l0.07073,-0.17394c-0.02326,-0.02268 -0.04837,-0.04336 -0.07481,-0.06239l-0.15755,0.09891c-0.03695,-0.01943 -0.07675,-0.03419 -0.11854,-0.04366l-0.05694,-0.17639c-0.01615,-0.00122 -0.03229,-0.00251 -0.04876,-0.00251s-0.03256,0.00126 -0.04876,0.00251l-0.05637,0.17482c-0.04291,0.00917 -0.08359,0.0241 -0.12148,0.04377l-0.15509,-0.09745c-0.0264,0.01903 -0.05152,0.0397 -0.07477,0.06239l0.06878,0.16914c-0.02681,0.03436 -0.04925,0.07226 -0.06611,0.11312l-0.17968,0.02485c-0.0079,0.03117 -0.01428,0.06289 -0.01753,0.09569l0.16127,0.08533c0.00183,0.04492 0.00927,0.08845 0.02246,0.12944l-0.12165,0.13451c0.01415,0.02935 0.02991,0.05782 0.04813,0.08452l0.17911,-0.03845c0.02937,0.03195 0.06282,0.05995 0.09974,0.0831l-0.00679,0.18325c0.02942,0.01327 0.05998,0.02437 0.09147,0.03324l0.11331,-0.14565c0.0201,0.00257 0.04046,0.0043 0.06123,0.0043c0.0225,0 0.04449,-0.00203 0.06614,-0.00501l0.1139,0.14646c0.03155,-0.00886 0.06206,-0.01997 0.09147,-0.03323l-0.00692,-0.18654c0.03518,-0.02278 0.06709,-0.05003 0.09521,-0.0808l0.18377,0.03943c0.01823,-0.0267 0.03398,-0.05514 0.04813,-0.08451l-0.12559,-0.13892c0.01206,-0.03883 0.0188,-0.07982 0.02077,-0.1221l0,0zm-0.27761,0.2122l-0.07919,0.05155l-0.04871,-0.07483c-0.02534,0.00975 -0.05262,0.01567 -0.08137,0.01567c-0.12559,0 -0.22738,-0.10182 -0.22738,-0.2274c0,-0.12558 0.10178,-0.22736 0.22738,-0.22736c0.12556,0 0.22738,0.10178 0.22738,0.22736c0,0.06275 -0.02542,0.11948 -0.06651,0.16064l0.0484,0.07437z" stroke-width="1.5" stroke="#1a2b81" fill="#1a2b81"/>
 </g>
</svg>